<?xml version="1.0" encoding="UTF-8"?>
<svg id="Layer_1" data-name="Layer 1" xmlns="http://www.w3.org/2000/svg" xmlns:xlink="http://www.w3.org/1999/xlink" viewBox="0 0 213.84 77.17">
  <defs>
    <style>
      .cls-1 {
        fill: url(#linear-gradient);
      }

      .cls-1, .cls-2 {
        stroke-width: 0px;
      }

      .cls-2 {
        fill: #442f91;
      }
    </style>
    <linearGradient id="linear-gradient" x1="0" y1="36.54" x2="73.08" y2="36.54" gradientUnits="userSpaceOnUse">
      <stop offset="0" stop-color="#442f91"/>
      <stop offset=".04" stop-color="#513987"/>
      <stop offset=".21" stop-color="#7f5c68"/>
      <stop offset=".37" stop-color="#a4794e"/>
      <stop offset=".53" stop-color="#c28f3a"/>
      <stop offset=".69" stop-color="#d7a02c"/>
      <stop offset=".85" stop-color="#e3a923"/>
      <stop offset="1" stop-color="#e8ad21"/>
    </linearGradient>
  </defs>
  <path class="cls-2" d="M124.66,38.47h-8.58V.36h8.58v38.11Z"/>
  <path class="cls-2" d="M213.84.36l-12.41,24.55v13.55h-8.58v-13.39L180.76.36h9.81l6.14,14.22c.11.27.4,1.3.88,3.11h.11c.23-1.28.5-2.28.82-3l6.24-14.32h9.09Z"/>
  <g>
    <path class="cls-2" d="M107.38,21.01c-1.62-1.67-3.79-2.67-6.5-3v-.11c2.16-.6,3.94-1.67,5.33-3.22s2.09-3.34,2.09-5.39c0-2.83-1.14-5.03-3.43-6.59s-5.55-2.34-9.81-2.34h-3.8v6.32h1.73c4.18,0,6.27,1.4,6.27,4.2,0,1.51-.51,2.69-1.53,3.55s-2.41,1.29-4.19,1.29h-2.28v6.38h3.21c1.98,0,3.53.43,4.64,1.3s1.66,2.06,1.66,3.59-.56,2.85-1.69,3.77-2.68,1.38-4.66,1.38h-3.16v6.32h4.57c4.32,0,7.73-1.02,10.23-3.07s3.75-4.81,3.75-8.3c0-2.39-.81-4.42-2.43-6.09Z"/>
    <rect class="cls-2" x="81.19" y=".36" width="8.26" height="38.11"/>
  </g>
  <g>
    <rect class="cls-2" x="133.33" y=".36" width="8.28" height="38.11"/>
    <rect class="cls-2" x="143.42" y="31.5" width="12.6" height="6.96"/>
  </g>
  <g>
    <rect class="cls-2" x="171.53" y="31.5" width="12.31" height="6.96"/>
    <rect class="cls-2" x="161.15" y=".36" width="8.57" height="38.11"/>
  </g>
  <g>
    <rect class="cls-2" x="145.43" y="46.62" width="5.82" height="26.37"/>
    <path class="cls-2" d="M162.57,65.2c-.26-.4-.54-.82-.86-1.24s-.64-.82-.98-1.19-.7-.69-1.07-.97-.75-.48-1.14-.6v-.07c.9-.26,1.71-.61,2.44-1.07s1.35-.99,1.87-1.62.91-1.33,1.2-2.11.42-1.63.42-2.55c0-4.78-3.2-7.17-9.6-7.17h-2.34v4.45h1.55c2.76,0,4.14,1.15,4.14,3.46,0,1.1-.39,2.03-1.18,2.78-.77.74-1.8,1.1-3.07,1.1h-1.44v4.49h.47c.37,0,.71.08,1.02.23s.61.37.9.66.57.63.86,1.04.58.86.88,1.38l4.1,6.79h6.82l-4.98-7.8Z"/>
  </g>
  <g>
    <rect class="cls-2" x="132.42" y="46.62" width="8.18" height="4.84"/>
    <rect class="cls-2" x="132.42" y="57.32" width="7.53" height="4.82"/>
    <rect class="cls-2" x="132.42" y="68.18" width="8.78" height="4.82"/>
    <rect class="cls-2" x="125.38" y="46.62" width="5.78" height="26.37"/>
  </g>
  <g>
    <rect class="cls-2" x="112.33" y="46.62" width="8.22" height="4.84"/>
    <rect class="cls-2" x="112.33" y="57.32" width="7.57" height="4.82"/>
    <rect class="cls-2" x="105.34" y="46.62" width="5.74" height="26.37"/>
    <rect class="cls-2" x="112.33" y="68.18" width="8.82" height="4.82"/>
  </g>
  <g>
    <rect class="cls-2" x="81.19" y="46.62" width="5.72" height="26.37"/>
    <path class="cls-2" d="M99.31,60.91c-1.12-1.15-2.62-1.85-4.5-2.08v-.07c1.5-.42,2.73-1.16,3.69-2.23s1.44-2.31,1.44-3.73c0-1.96-.79-3.48-2.37-4.56s-3.84-1.62-6.79-1.62h-2.63v4.38h1.19c2.89,0,4.34.97,4.34,2.91,0,1.04-.35,1.86-1.06,2.46s-1.67.89-2.9.89h-1.58v4.41h2.22c1.37,0,2.44.3,3.21.9s1.15,1.43,1.15,2.48-.39,1.97-1.17,2.61-1.85.96-3.23.96h-2.19v4.38h3.16c2.99,0,5.35-.71,7.08-2.12s2.59-3.33,2.59-5.75c0-1.66-.56-3.06-1.68-4.21Z"/>
  </g>
  <path class="cls-2" d="M167.56,72.99s1.88,2.93,5.35,3.88c0,0-8.48,1.88-12.18-3.88h6.82Z"/>
  <path class="cls-1" d="M56.23,0H16.86C7.55,0,0,7.55,0,16.86v39.37c0,9.31,7.55,16.86,16.86,16.86h39.37c9.31,0,16.86-7.55,16.86-16.86V16.86c0-9.31-7.55-16.86-16.86-16.86ZM59.14,63.65H15.38v-7.91h43.76v7.91ZM59.28,48.41H15.52L7.03,21.53l15.61,16.07,2.18-9.5,6,7.67,6.15-27.18,7.84,26.81,5.23-7.91,1.92,9.61,14.01-16.82-6.7,28.12Z"/>
</svg>